<?xml version="1.0" encoding="UTF-8"?>
<svg xmlns="http://www.w3.org/2000/svg" viewBox="0 0 500 500">
  <!-- Stylized Leaves and Flames -->
  <g>
    <!-- Green Leaves -->
    <path d="M220,300 C180,240 150,180 220,120 C250,180 260,240 220,300 Z" fill="#2c5d34"/>
    <path d="M280,300 C320,240 350,180 280,120 C250,180 240,240 280,300 Z" fill="#2c5d34"/>
    
    <!-- Orange Flames -->
    <path d="M230,100 C210,60 210,20 250,10 C290,20 290,60 270,100 Z" fill="#f39c12"/>
    <path d="M150,150 C130,120 130,90 160,80 C190,90 190,120 170,150 Z" fill="#f39c12"/>
    <path d="M350,150 C370,120 370,90 340,80 C310,90 310,120 330,150 Z" fill="#f39c12"/>
    <path d="M180,180 C160,150 160,120 190,110 C220,120 220,150 200,180 Z" fill="#f39c12"/>
    <path d="M320,180 C340,150 340,120 310,110 C280,120 280,150 300,180 Z" fill="#f39c12"/>
    
    <!-- Center Rhino Shape -->
    <path d="M250,400 C200,380 160,320 160,260 C160,180 200,120 250,120 C300,120 340,180 340,260 C340,320 300,380 250,400 Z" fill="#2c5d34"/>
    <path d="M250,360 C220,350 200,310 200,270 C200,220 220,180 250,180 C280,180 300,220 300,270 C300,310 280,350 250,360 Z" fill="#f39c12"/>
    
    <!-- Horn -->
    <path d="M250,260 L250,180 L220,220 Z" fill="#2c5d34"/>
    
    <!-- Eyes -->
    <ellipse cx="220" cy="240" rx="10" ry="15" fill="#2c5d34"/>
    <ellipse cx="280" cy="240" rx="10" ry="15" fill="#2c5d34"/>
  </g>
</svg> 