<?xml version="1.0" encoding="UTF-8"?>
<svg width="1200" height="600" viewBox="0 0 1200 600" xmlns="http://www.w3.org/2000/svg">
  <!-- Background gradient -->
  <defs>
    <linearGradient id="bgGradient" x1="0%" y1="0%" x2="100%" y2="100%">
      <stop offset="0%" stop-color="#fffaf4" />
      <stop offset="100%" stop-color="#fff4e6" />
    </linearGradient>
    
    <linearGradient id="accentGradient" x1="0%" y1="0%" x2="100%" y2="100%">
      <stop offset="0%" stop-color="#f39c12" />
      <stop offset="100%" stop-color="#e67e22" />
    </linearGradient>
    
    <filter id="glow" x="-50%" y="-50%" width="200%" height="200%">
      <feGaussianBlur in="SourceGraphic" stdDeviation="10" result="blur" />
      <feColorMatrix in="blur" mode="matrix" values="1 0 0 0 0  0 1 0 0 0  0 0 1 0 0  0 0 0 18 -7" result="glow" />
      <feBlend in="SourceGraphic" in2="glow" mode="normal" />
    </filter>
  </defs>
  
  <!-- Main background -->
  <rect width="1200" height="600" fill="url(#bgGradient)" />
  
  <!-- Decorative elements -->
  <g opacity="0.05">
    <!-- Pattern elements -->
    <circle cx="200" cy="150" r="100" fill="#f39c12" />
    <circle cx="1000" cy="450" r="150" fill="#2ecc71" />
    <path d="M0,300 Q300,200 600,300 T1200,300" stroke="#f39c12" stroke-width="8" fill="none" />
    <path d="M0,350 Q300,450 600,350 T1200,350" stroke="#2ecc71" stroke-width="8" fill="none" />
  </g>
  
  <!-- Accent corner design -->
  <path d="M0,0 L300,0 Q280,40 240,80 Q200,120 150,140 Q100,160 0,150 Z" fill="url(#accentGradient)" opacity="0.7" />
  <path d="M1200,600 L900,600 Q920,560 960,520 Q1000,480 1050,460 Q1100,440 1200,450 Z" fill="#2ecc71" opacity="0.7" />
  
  <!-- Stylized logo elements -->
  <g transform="translate(950, 150) scale(0.5)" opacity="0.9">
    <!-- Green Leaves from logo -->
    <path d="M220,300 C180,240 150,180 220,120 C250,180 260,240 220,300 Z" fill="#2c5d34"/>
    <path d="M280,300 C320,240 350,180 280,120 C250,180 240,240 280,300 Z" fill="#2c5d34"/>
    
    <!-- Orange Flames from logo -->
    <path d="M230,100 C210,60 210,20 250,10 C290,20 290,60 270,100 Z" fill="#f39c12"/>
    <path d="M150,150 C130,120 130,90 160,80 C190,90 190,120 170,150 Z" fill="#f39c12"/>
    <path d="M350,150 C370,120 370,90 340,80 C310,90 310,120 330,150 Z" fill="#f39c12"/>
  </g>
  
  <!-- Coin/token graphics -->
  <g transform="translate(150, 450) scale(0.7)" filter="url(#glow)">
    <circle cx="0" cy="0" r="60" fill="#f39c12" />
    <text x="0" y="5" font-family="Arial" font-size="28" fill="white" text-anchor="middle" dominant-baseline="middle">LKH</text>
  </g>
  
  <g transform="translate(300, 380) scale(0.5)" filter="url(#glow)">
    <circle cx="0" cy="0" r="60" fill="#2ecc71" />
    <text x="0" y="5" font-family="Arial" font-size="28" fill="white" text-anchor="middle" dominant-baseline="middle">$</text>
  </g>
  
  <!-- Subtle grid pattern -->
  <g stroke="#f39c12" stroke-width="0.5" opacity="0.1">
    <path d="M0,150 H1200" />
    <path d="M0,300 H1200" />
    <path d="M0,450 H1200" />
    <path d="M300,0 V600" />
    <path d="M600,0 V600" />
    <path d="M900,0 V600" />
  </g>
</svg> 